<mxfile host="app.diagrams.net" modified="2024-03-08T03:40:07.845Z" agent="Mozilla/5.0 (Windows NT 10.0; Win64; x64) AppleWebKit/537.36 (KHTML, like Gecko) Chrome/122.0.0.0 Safari/537.36 Edg/122.0.0.0" etag="2fE77Gtsi4YWS1tTHQN6" version="24.0.2" type="device">
  <diagram name="Page-1" id="iRyyKmQIzl9rFihjQDhw">
    <mxGraphModel dx="1235" dy="691" grid="1" gridSize="10" guides="1" tooltips="1" connect="1" arrows="1" fold="1" page="1" pageScale="1" pageWidth="850" pageHeight="1100" math="0" shadow="0">
      <root>
        <mxCell id="0" />
        <mxCell id="1" parent="0" />
        <mxCell id="zYGX3FI0uth6cSDIzJyD-83" value="báo cáo doanh thu bán vé các chuyến bay" style="ellipse;whiteSpace=wrap;html=1;" parent="1" vertex="1">
          <mxGeometry x="320" y="160" width="160" height="80" as="geometry" />
        </mxCell>
        <mxCell id="zYGX3FI0uth6cSDIzJyD-84" value="Người dùng" style="rounded=1;whiteSpace=wrap;html=1;" parent="1" vertex="1">
          <mxGeometry x="340" y="20" width="120" height="60" as="geometry" />
        </mxCell>
        <mxCell id="zYGX3FI0uth6cSDIzJyD-85" value="Tb xuất" style="rounded=1;whiteSpace=wrap;html=1;" parent="1" vertex="1">
          <mxGeometry x="560" y="170" width="120" height="60" as="geometry" />
        </mxCell>
        <mxCell id="zYGX3FI0uth6cSDIzJyD-86" value="Tb nhập" style="rounded=1;whiteSpace=wrap;html=1;" parent="1" vertex="1">
          <mxGeometry x="120" y="170" width="120" height="60" as="geometry" />
        </mxCell>
        <mxCell id="zYGX3FI0uth6cSDIzJyD-94" value="" style="shape=flexArrow;endArrow=classic;html=1;rounded=0;exitX=0.357;exitY=0.989;exitDx=0;exitDy=0;exitPerimeter=0;entryX=0.386;entryY=0.017;entryDx=0;entryDy=0;entryPerimeter=0;fillColor=#60a917;strokeColor=#2D7600;" parent="1" source="zYGX3FI0uth6cSDIzJyD-84" target="zYGX3FI0uth6cSDIzJyD-83" edge="1">
          <mxGeometry width="50" height="50" relative="1" as="geometry">
            <mxPoint x="360" y="180" as="sourcePoint" />
            <mxPoint x="410" y="130" as="targetPoint" />
          </mxGeometry>
        </mxCell>
        <mxCell id="zYGX3FI0uth6cSDIzJyD-95" value="" style="shape=flexArrow;endArrow=classic;html=1;rounded=0;entryX=0.726;entryY=1.022;entryDx=0;entryDy=0;entryPerimeter=0;exitX=0.671;exitY=0.022;exitDx=0;exitDy=0;exitPerimeter=0;fillColor=#60a917;strokeColor=#2D7600;" parent="1" source="zYGX3FI0uth6cSDIzJyD-83" target="zYGX3FI0uth6cSDIzJyD-84" edge="1">
          <mxGeometry width="50" height="50" relative="1" as="geometry">
            <mxPoint x="400" y="170" as="sourcePoint" />
            <mxPoint x="450" y="120" as="targetPoint" />
          </mxGeometry>
        </mxCell>
        <mxCell id="zYGX3FI0uth6cSDIzJyD-96" value="" style="shape=flexArrow;endArrow=classic;html=1;rounded=0;entryX=0;entryY=0.5;entryDx=0;entryDy=0;exitX=1;exitY=0.5;exitDx=0;exitDy=0;fillColor=#60a917;strokeColor=#2D7600;" parent="1" source="zYGX3FI0uth6cSDIzJyD-83" target="zYGX3FI0uth6cSDIzJyD-85" edge="1">
          <mxGeometry width="50" height="50" relative="1" as="geometry">
            <mxPoint x="420" y="170" as="sourcePoint" />
            <mxPoint x="470" y="120" as="targetPoint" />
          </mxGeometry>
        </mxCell>
        <mxCell id="zYGX3FI0uth6cSDIzJyD-97" value="" style="shape=flexArrow;endArrow=classic;html=1;rounded=0;entryX=0;entryY=0.5;entryDx=0;entryDy=0;exitX=1;exitY=0.5;exitDx=0;exitDy=0;" parent="1" source="zYGX3FI0uth6cSDIzJyD-86" target="zYGX3FI0uth6cSDIzJyD-83" edge="1">
          <mxGeometry width="50" height="50" relative="1" as="geometry">
            <mxPoint x="420" y="170" as="sourcePoint" />
            <mxPoint x="470" y="120" as="targetPoint" />
          </mxGeometry>
        </mxCell>
        <mxCell id="zYGX3FI0uth6cSDIzJyD-98" value="" style="endArrow=none;html=1;rounded=0;" parent="1" edge="1">
          <mxGeometry width="50" height="50" relative="1" as="geometry">
            <mxPoint x="360" y="320" as="sourcePoint" />
            <mxPoint x="440" y="320" as="targetPoint" />
          </mxGeometry>
        </mxCell>
        <mxCell id="zYGX3FI0uth6cSDIzJyD-99" value="" style="endArrow=none;html=1;rounded=0;" parent="1" edge="1">
          <mxGeometry width="50" height="50" relative="1" as="geometry">
            <mxPoint x="360" y="360" as="sourcePoint" />
            <mxPoint x="440" y="360" as="targetPoint" />
          </mxGeometry>
        </mxCell>
        <mxCell id="zYGX3FI0uth6cSDIzJyD-100" value="" style="shape=flexArrow;endArrow=classic;html=1;rounded=0;entryX=0.409;entryY=0.988;entryDx=0;entryDy=0;entryPerimeter=0;fillColor=#60a917;strokeColor=#2D7600;" parent="1" target="zYGX3FI0uth6cSDIzJyD-83" edge="1">
          <mxGeometry width="50" height="50" relative="1" as="geometry">
            <mxPoint x="384" y="320" as="sourcePoint" />
            <mxPoint x="470" y="270" as="targetPoint" />
          </mxGeometry>
        </mxCell>
        <mxCell id="zYGX3FI0uth6cSDIzJyD-101" value="" style="shape=flexArrow;endArrow=classic;html=1;rounded=0;exitX=0.608;exitY=1.012;exitDx=0;exitDy=0;exitPerimeter=0;fillColor=#60a917;strokeColor=#2D7600;" parent="1" source="zYGX3FI0uth6cSDIzJyD-83" edge="1">
          <mxGeometry width="50" height="50" relative="1" as="geometry">
            <mxPoint x="420" y="320" as="sourcePoint" />
            <mxPoint x="420" y="320" as="targetPoint" />
          </mxGeometry>
        </mxCell>
        <mxCell id="zYGX3FI0uth6cSDIzJyD-102" value="Bộ nhớ phụ" style="text;html=1;align=center;verticalAlign=middle;resizable=0;points=[];autosize=1;strokeColor=none;fillColor=none;" parent="1" vertex="1">
          <mxGeometry x="355" y="328" width="90" height="30" as="geometry" />
        </mxCell>
        <mxCell id="uZK5isMZc-4fUwDppkmD-1" value="&lt;div&gt;&lt;b&gt;&lt;u&gt;Mô tả các luồng dữ liệu&lt;/u&gt;&lt;/b&gt;&lt;/div&gt;D1: Tháng + Năm&lt;div&gt;D2: Không có&lt;/div&gt;&lt;div&gt;D3: Doanh sách các chuyến bay và giá tiền từng chuyến bay trong tháng&amp;nbsp; (D1) *&lt;/div&gt;&lt;div&gt;D4: D1 + thông tin thống kê doanh thu trong (Tên chuyến bay, giá ) + tổng doanh thu&lt;/div&gt;&lt;div&gt;D5 :D4&lt;/div&gt;&lt;div&gt;D6:&amp;nbsp; D5&lt;/div&gt;&lt;div&gt;* chuyến bay thời điểm nào tính theo thời điểm đó, nếu chuyến bay vào lúc giữa 2 tháng thì tính vào tháng trước đó&lt;/div&gt;" style="text;html=1;align=left;verticalAlign=middle;resizable=0;points=[];autosize=1;strokeColor=none;fillColor=none;" vertex="1" parent="1">
          <mxGeometry x="120" y="370" width="640" height="130" as="geometry" />
        </mxCell>
      </root>
    </mxGraphModel>
  </diagram>
</mxfile>
